<svg width="52" height="52" viewBox="0 0 52 52" fill="none" xmlns="http://www.w3.org/2000/svg">
<path d="M0 9.14062C0 4.0924 4.0924 0 9.14062 0H42.8594C47.9076 0 52 4.0924 52 9.14062V42.8594C52 47.9076 47.9076 52 42.8594 52H9.14062C4.0924 52 0 47.9076 0 42.8594V9.14062Z" fill="url(#paint0_linear_1856_63325)"/>
<path fill-rule="evenodd" clip-rule="evenodd" d="M35.5469 26.0508C35.5469 31.3514 31.2499 35.6484 25.9492 35.6484C20.6486 35.6484 16.3516 31.3514 16.3516 26.0508C16.3516 20.7501 20.6486 16.4531 25.9492 16.4531C31.2499 16.4531 35.5469 20.7501 35.5469 26.0508ZM25.9492 32.3984C29.4549 32.3984 32.2969 29.5565 32.2969 26.0508C32.2969 22.5451 29.4549 19.7031 25.9492 19.7031C22.4435 19.7031 19.6016 22.5451 19.6016 26.0508C19.6016 29.5565 22.4435 32.3984 25.9492 32.3984Z" fill="white"/>
<path d="M37.0703 18.5859C38.4726 18.5859 39.6094 17.4492 39.6094 16.0469C39.6094 14.6446 38.4726 13.5078 37.0703 13.5078C35.668 13.5078 34.5312 14.6446 34.5312 16.0469C34.5312 17.4492 35.668 18.5859 37.0703 18.5859Z" fill="white"/>
<path fill-rule="evenodd" clip-rule="evenodd" d="M18.8906 6.5H33.1094C39.9525 6.5 45.5 12.0475 45.5 18.8906V33.1094C45.5 39.9525 39.9525 45.5 33.1094 45.5H18.8906C12.0475 45.5 6.5 39.9525 6.5 33.1094V18.8906C6.5 12.0475 12.0475 6.5 18.8906 6.5ZM18.8906 9.75C13.8424 9.75 9.75 13.8424 9.75 18.8906V33.1094C9.75 38.1576 13.8424 42.25 18.8906 42.25H33.1094C38.1576 42.25 42.25 38.1576 42.25 33.1094V18.8906C42.25 13.8424 38.1576 9.75 33.1094 9.75H18.8906Z" fill="white"/>
<defs>
<linearGradient id="paint0_linear_1856_63325" x1="54.5391" y1="-1.72656" x2="1.72657" y2="52" gradientUnits="userSpaceOnUse">
<stop stop-color="#7A3EAC"/>
<stop offset="0.160634" stop-color="#D33D96"/>
<stop offset="0.312801" stop-color="#E94968"/>
<stop offset="0.481337" stop-color="#FD5342"/>
<stop offset="0.71875" stop-color="#FF9148"/>
<stop offset="1" stop-color="#F7D87B"/>
</linearGradient>
</defs>
</svg>
