<svg width="363" height="327" viewBox="0 0 363 327" fill="none" xmlns="http://www.w3.org/2000/svg">
<g clip-path="url(#clip0_2753_86717)">
<path d="M89.7041 82.7409C83.4786 64.1315 64.2537 53.7887 51.6065 58.0196C38.9593 62.2505 29.8278 82.0795 36.0533 100.689C41.8157 117.914 59.2767 127.858 71.2886 126.084C71.202 126.234 71.1449 126.4 71.1206 126.572L70.7533 129.636C70.7253 129.869 70.7575 130.106 70.8467 130.324C70.936 130.541 71.0794 130.732 71.2633 130.879C71.4473 131.026 71.6656 131.123 71.8976 131.161C72.1297 131.2 72.3677 131.178 72.5891 131.099L78.7766 128.88C78.998 128.801 79.1954 128.666 79.3501 128.489C79.5049 128.312 79.6117 128.098 79.6606 127.868C79.7095 127.638 79.6988 127.399 79.6294 127.174C79.5601 126.95 79.4344 126.746 79.2644 126.584L77.0341 124.452C76.9548 124.379 76.8672 124.316 76.7731 124.264C87.4866 118.491 95.479 100.004 89.7041 82.7409Z" fill="#F49923"/>
<path d="M67.1669 69.0493C72.3369 71.7175 76.2851 76.2688 78.1967 81.7637C80.1082 87.2586 79.8371 93.2777 77.4394 98.5785C76.904 99.7973 78.8729 100.438 79.4048 99.2274C81.9223 93.4919 82.1784 87.0167 80.1216 81.1003C78.0649 75.1839 73.8475 70.2638 68.3151 67.3266C67.1474 66.7079 65.9905 68.426 67.1669 69.0493Z" fill="white"/>
<path d="M341.75 55.6149C335.525 37.0055 316.3 26.6627 303.653 30.8936C291.006 35.1245 281.874 54.9535 288.1 73.5629C293.862 90.7882 311.323 100.732 323.335 98.9578C323.248 99.1085 323.191 99.2743 323.167 99.4463L322.8 102.51C322.772 102.743 322.804 102.98 322.893 103.198C322.982 103.415 323.126 103.606 323.31 103.753C323.494 103.9 323.712 103.997 323.944 104.035C324.176 104.074 324.414 104.052 324.635 103.973L330.823 101.754C331.044 101.675 331.242 101.54 331.396 101.363C331.551 101.186 331.658 100.972 331.707 100.742C331.756 100.512 331.745 100.273 331.676 100.048C331.606 99.8237 331.481 99.6204 331.311 99.4579L329.08 97.3259C329.001 97.2534 328.913 97.1904 328.819 97.1384C339.533 91.3648 347.525 72.8777 341.75 55.6149Z" fill="#F49923"/>
<path d="M319.213 41.9233C324.383 44.5915 328.331 49.1428 330.243 54.6377C332.154 60.1326 331.883 66.1517 329.486 71.4525C328.95 72.6713 330.919 73.3123 331.451 72.1014C333.969 66.3659 334.225 59.8907 332.168 53.9743C330.111 48.0579 325.894 43.1378 320.361 40.2007C319.194 39.5819 318.037 41.3 319.213 41.9233Z" fill="white"/>
<path d="M195.383 25.6628C189.157 7.05339 169.932 -3.28945 157.285 0.941472C144.638 5.17239 135.506 25.0013 141.732 43.6108C147.494 60.8361 164.955 70.7802 176.967 69.0057C176.881 69.1563 176.824 69.3221 176.799 69.4942L176.432 72.5576C176.404 72.7911 176.436 73.0279 176.525 73.2455C176.615 73.4631 176.758 73.6543 176.942 73.8009C177.126 73.9475 177.344 74.0446 177.576 74.0831C177.808 74.1216 178.046 74.1001 178.268 74.0207L184.455 71.8021C184.677 71.7227 184.874 71.588 185.029 71.4109C185.183 71.2338 185.29 71.02 185.339 70.7899C185.388 70.5598 185.377 70.3211 185.308 70.0963C185.239 69.8716 185.113 69.6683 184.943 69.5058L182.713 67.3738C182.633 67.3012 182.546 67.2382 182.452 67.1862C193.165 61.4126 201.158 42.9256 195.383 25.6628Z" fill="#F49923"/>
<path d="M172.845 11.9712C178.015 14.6394 181.964 19.1907 183.875 24.6855C185.787 30.1804 185.516 36.1995 183.118 41.5003C182.583 42.7192 184.551 43.3601 185.083 42.1493C187.601 36.4138 187.857 29.9385 185.8 24.0221C183.744 18.1057 179.526 13.1856 173.994 10.2485C172.826 9.62974 171.669 11.3478 172.845 11.9712Z" fill="white"/>
<path d="M164.159 115.207C164.978 115.207 165.642 114.543 165.642 113.724C165.642 112.905 164.978 112.241 164.159 112.241C163.34 112.241 162.676 112.905 162.676 113.724C162.676 114.543 163.34 115.207 164.159 115.207Z" fill="#4E4E4E"/>
<path d="M160.998 174.704C162.616 174.704 163.928 173.392 163.928 171.774C163.928 170.156 162.616 168.844 160.998 168.844C159.38 168.844 158.068 170.156 158.068 171.774C158.068 173.392 159.38 174.704 160.998 174.704Z" fill="#4E4E4E"/>
<path d="M111.948 163.422C112.883 163.422 113.641 162.664 113.641 161.729C113.641 160.794 112.883 160.036 111.948 160.036C111.013 160.036 110.255 160.794 110.255 161.729C110.255 162.664 111.013 163.422 111.948 163.422Z" fill="#4E4E4E"/>
<path d="M137.668 135.7C138.681 135.7 139.501 134.879 139.501 133.867C139.501 132.854 138.681 132.033 137.668 132.033C136.655 132.033 135.835 132.854 135.835 133.867C135.835 134.879 136.655 135.7 137.668 135.7Z" fill="#4E4E4E"/>
<path d="M227.887 243.044C228.707 243.044 229.371 242.38 229.371 241.561C229.371 240.742 228.707 240.078 227.887 240.078C227.068 240.078 226.404 240.742 226.404 241.561C226.404 242.38 227.068 243.044 227.887 243.044Z" fill="#4E4E4E"/>
<path d="M179.315 212.547C180.933 212.547 182.245 211.236 182.245 209.617C182.245 207.999 180.933 206.688 179.315 206.688C177.697 206.688 176.385 207.999 176.385 209.617C176.385 211.236 177.697 212.547 179.315 212.547Z" fill="#4E4E4E"/>
<path d="M212.679 173.979C213.614 173.979 214.372 173.221 214.372 172.286C214.372 171.351 213.614 170.593 212.679 170.593C211.744 170.593 210.986 171.351 210.986 172.286C210.986 173.221 211.744 173.979 212.679 173.979Z" fill="#4E4E4E"/>
<path d="M223.813 210.366C224.825 210.366 225.646 209.545 225.646 208.533C225.646 207.52 224.825 206.699 223.813 206.699C222.8 206.699 221.979 207.52 221.979 208.533C221.979 209.545 222.8 210.366 223.813 210.366Z" fill="#4E4E4E"/>
<path d="M322.567 304.796C324.185 303.441 321.998 298.166 317.684 293.013C313.369 287.859 308.56 284.78 306.943 286.134C305.325 287.489 307.511 292.764 311.826 297.918C316.14 303.071 320.949 306.15 322.567 304.796Z" fill="#2F2E41"/>
<path d="M288.868 315.578C302.31 315.578 313.206 304.682 313.206 291.24C313.206 277.798 302.31 266.901 288.868 266.901C275.426 266.901 264.529 277.798 264.529 291.24C264.529 304.682 275.426 315.578 288.868 315.578Z" fill="#2F2E41"/>
<path d="M299.169 310.341H291.775V323.588H299.169V310.341Z" fill="#2F2E41"/>
<path d="M284.381 310.341H276.988V323.588H284.381V310.341Z" fill="#2F2E41"/>
<path d="M293.008 326.053C296.411 326.053 299.17 325.018 299.17 323.742C299.17 322.466 296.411 321.432 293.008 321.432C289.605 321.432 286.846 322.466 286.846 323.742C286.846 325.018 289.605 326.053 293.008 326.053Z" fill="#2F2E41"/>
<path d="M278.22 325.744C281.623 325.744 284.382 324.71 284.382 323.434C284.382 322.158 281.623 321.123 278.22 321.123C274.817 321.123 272.058 322.158 272.058 323.434C272.058 324.71 274.817 325.744 278.22 325.744Z" fill="#2F2E41"/>
<path d="M281.226 260.645C283.399 251.893 292.992 246.743 302.652 249.141C312.313 251.54 318.382 260.58 316.209 269.332C314.036 278.084 306.826 278.112 297.165 275.713C287.505 273.315 279.053 269.397 281.226 260.645Z" fill="#F49923"/>
<path d="M272.45 285.161C273.354 283.254 269.164 279.374 263.092 276.494C257.019 273.614 251.364 272.825 250.459 274.731C249.555 276.637 253.745 280.517 259.818 283.397C265.89 286.278 271.546 287.067 272.45 285.161Z" fill="#2F2E41"/>
<path d="M285.229 294.218C289.711 294.218 293.344 290.585 293.344 286.104C293.344 281.622 289.711 277.989 285.229 277.989C280.748 277.989 277.115 281.622 277.115 286.104C277.115 290.585 280.748 294.218 285.229 294.218Z" fill="white"/>
<path d="M281.894 285.9C283.388 285.9 284.599 284.689 284.599 283.195C284.599 281.701 283.388 280.49 281.894 280.49C280.4 280.49 279.19 281.701 279.19 283.195C279.19 284.689 280.4 285.9 281.894 285.9Z" fill="#3F3D56"/>
<path d="M290.32 303.01C290.447 303.709 290.435 304.426 290.285 305.121C290.135 305.815 289.85 306.473 289.446 307.057C289.042 307.641 288.526 308.14 287.929 308.525C287.332 308.91 286.665 309.174 285.966 309.301C285.267 309.428 284.55 309.417 283.856 309.267C283.161 309.117 282.503 308.832 281.919 308.427C281.335 308.023 280.836 307.508 280.451 306.911C280.066 306.314 279.802 305.647 279.675 304.948V304.948L279.673 304.937C279.141 301.997 281.414 300.957 284.354 300.425C287.294 299.893 289.787 300.07 290.32 303.01Z" fill="white"/>
<path d="M88.7706 274.224C91.1702 267.946 91.5177 262.246 89.5469 261.493C87.5761 260.74 84.0332 265.218 81.6336 271.496C79.2341 277.774 78.8865 283.474 80.8574 284.227C82.8282 284.981 86.3711 280.502 88.7706 274.224Z" fill="#2F2E41"/>
<path d="M62.7059 315.578C76.1477 315.578 87.0444 304.682 87.0444 291.24C87.0444 277.798 76.1477 266.901 62.7059 266.901C49.2641 266.901 38.3674 277.798 38.3674 291.24C38.3674 304.682 49.2641 315.578 62.7059 315.578Z" fill="#2F2E41"/>
<path d="M59.009 310.341H51.6151V323.588H59.009V310.341Z" fill="#2F2E41"/>
<path d="M73.7969 310.341H66.403V323.588H73.7969V310.341Z" fill="#2F2E41"/>
<path d="M57.7767 326.053C61.1797 326.053 63.9384 325.018 63.9384 323.742C63.9384 322.466 61.1797 321.432 57.7767 321.432C54.3737 321.432 51.6151 322.466 51.6151 323.742C51.6151 325.018 54.3737 326.053 57.7767 326.053Z" fill="#2F2E41"/>
<path d="M72.5646 325.744C75.9676 325.744 78.7263 324.71 78.7263 323.434C78.7263 322.158 75.9676 321.123 72.5646 321.123C69.1617 321.123 66.403 322.158 66.403 323.434C66.403 324.71 69.1617 325.744 72.5646 325.744Z" fill="#2F2E41"/>
<path d="M63.3221 293.396C67.9161 293.396 71.6403 289.672 71.6403 285.078C71.6403 280.484 67.9161 276.76 63.3221 276.76C58.7281 276.76 55.0039 280.484 55.0039 285.078C55.0039 289.672 58.7281 293.396 63.3221 293.396Z" fill="white"/>
<path d="M63.3222 287.85C64.8536 287.85 66.095 286.609 66.095 285.077C66.095 283.546 64.8536 282.305 63.3222 282.305C61.7909 282.305 60.5495 283.546 60.5495 285.077C60.5495 286.609 61.7909 287.85 63.3222 287.85Z" fill="#3F3D56"/>
<path d="M39.097 268.605C37.1318 259.804 43.4138 250.911 53.1283 248.741C62.8428 246.572 72.3111 251.949 74.2763 260.75C76.2415 269.551 69.8034 272.797 60.0889 274.966C50.3744 277.135 41.0622 277.406 39.097 268.605Z" fill="#F49923"/>
<path d="M46.288 285.162C47.1921 283.255 43.0023 279.375 36.9298 276.495C30.8573 273.615 25.2016 272.826 24.2975 274.732C23.3933 276.638 27.5831 280.518 33.6556 283.398C39.7281 286.279 45.3838 287.068 46.288 285.162Z" fill="#2F2E41"/>
<path d="M50.7511 300.02C50.7511 302.402 56.8846 307.106 63.6905 307.106C70.4965 307.106 76.8778 300.399 76.8778 298.017C76.8778 295.635 70.4965 298.479 63.6905 298.479C56.8846 298.479 50.7511 297.638 50.7511 300.02Z" fill="white"/>
<path d="M178.963 292.407C192.405 292.407 203.302 281.511 203.302 268.069C203.302 254.627 192.405 243.73 178.963 243.73C165.521 243.73 154.625 254.627 154.625 268.069C154.625 281.511 165.521 292.407 178.963 292.407Z" fill="#2F2E41"/>
<path d="M175.266 287.17H167.872V300.417H175.266V287.17Z" fill="#2F2E41"/>
<path d="M190.054 287.17H182.66V300.417H190.054V287.17Z" fill="#2F2E41"/>
<path d="M174.034 302.883C177.437 302.883 180.196 301.848 180.196 300.572C180.196 299.296 177.437 298.262 174.034 298.262C170.631 298.262 167.872 299.296 167.872 300.572C167.872 301.848 170.631 302.883 174.034 302.883Z" fill="#2F2E41"/>
<path d="M188.822 302.574C192.225 302.574 194.984 301.54 194.984 300.264C194.984 298.988 192.225 297.953 188.822 297.953C185.419 297.953 182.66 298.988 182.66 300.264C182.66 301.54 185.419 302.574 188.822 302.574Z" fill="#2F2E41"/>
<path d="M155.354 245.435C153.389 236.634 159.671 227.741 169.385 225.572C179.1 223.402 188.568 228.779 190.533 237.58C192.499 246.381 186.06 249.627 176.346 251.796C166.631 253.965 157.319 254.236 155.354 245.435Z" fill="#2BC0E3"/>
<path d="M205.191 257.434C210.461 252.159 213.392 246.542 211.736 244.887C210.08 243.232 204.465 246.167 199.194 251.442C193.923 256.717 190.992 262.335 192.648 263.989C194.304 265.644 199.92 262.709 205.191 257.434Z" fill="#2F2E41"/>
<path d="M159.346 265.684C161.002 264.03 158.071 258.412 152.8 253.137C147.529 247.862 141.914 244.927 140.258 246.582C138.602 248.237 141.532 253.854 146.803 259.129C152.074 264.404 157.69 267.339 159.346 265.684Z" fill="#2F2E41"/>
<path d="M326.929 113.603C326.122 88.6468 309.029 68.9483 288.753 69.6048C243.626 70.9419 242.524 153.696 286.092 159.641L285.17 166.973L298.626 166.538L297.231 159.28C314.758 155.406 327.662 136.228 326.929 113.603Z" fill="#FF6584"/>
<path d="M266.312 127.438L261.228 127.603C259.235 118.129 258.92 108.379 260.296 98.7964L265.379 98.6318C263.502 108.663 263.812 118.265 266.312 127.438Z" fill="white"/>
<path d="M299.285 159.165L284.035 159.659L284.144 163.048L299.395 162.554L299.285 159.165Z" fill="#3F3D56"/>
<path d="M254.99 288.933L253.454 288.215L291.211 160.173L292.747 160.892L254.99 288.933Z" fill="#3F3D56"/>
<path d="M358.18 134.705C367.4 111.501 359.592 86.6175 340.739 79.1257C298.829 62.3384 264.785 137.774 302.36 160.616L298.587 166.971L311.099 171.942L312.717 164.731C330.333 168.175 349.82 155.742 358.18 134.705Z" fill="#2BC0E3"/>
<path d="M297.078 123.195L292.351 121.316C294.306 111.835 297.908 102.769 302.995 94.5322L307.721 96.4105C301.996 104.858 298.448 113.786 297.078 123.195Z" fill="white"/>
<path d="M300.466 159.812L299.214 162.963L313.394 168.598L314.646 165.447L300.466 159.812Z" fill="#3F3D56"/>
<path d="M254.691 285.564L253.218 284.725L305.932 164.428L307.405 165.266L254.691 285.564Z" fill="#3F3D56"/>
<path d="M71.6537 115.214C61.6775 92.3249 38.514 80.3404 19.9164 88.446C-21.5196 106.371 8.04829 183.67 50.7282 173.087L52.5819 180.242L64.9237 174.863L60.9447 168.635C75.7978 158.556 80.6983 135.966 71.6537 115.214Z" fill="#2BC0E3"/>
<path d="M20.4449 150.48L15.7824 152.512C10.4286 144.446 6.53112 135.503 4.26698 126.091L8.92951 124.059C10.8932 134.073 14.7316 142.88 20.4449 150.48Z" fill="white"/>
<path d="M62.8112 167.77L48.8236 173.866L50.1784 176.975L64.166 170.878L62.8112 167.77Z" fill="#3F3D56"/>
<path d="M95.1738 289.262C94.9556 289.316 94.7249 289.281 94.5323 289.165C94.3398 289.049 94.2012 288.861 94.1471 288.643L57.2967 171.879L58.9421 171.471L95.7925 288.235C95.8193 288.343 95.8245 288.455 95.808 288.565C95.7914 288.675 95.7533 288.781 95.6958 288.876C95.6384 288.972 95.5627 289.055 95.4731 289.121C95.3836 289.187 95.2818 289.235 95.1738 289.262Z" fill="#3F3D56"/>
<path d="M105.023 326.179H16.2977C16.1478 326.179 16.0041 326.12 15.8981 326.014C15.7921 325.908 15.7326 325.764 15.7326 325.614C15.7326 325.464 15.7921 325.32 15.8981 325.214C16.0041 325.108 16.1478 325.049 16.2977 325.049H105.023C105.172 325.049 105.316 325.108 105.422 325.214C105.528 325.32 105.588 325.464 105.588 325.614C105.588 325.764 105.528 325.908 105.422 326.014C105.316 326.12 105.172 326.179 105.023 326.179Z" fill="#4E4E4E"/>
<path d="M330.508 326.179H241.783C241.633 326.179 241.489 326.12 241.383 326.014C241.277 325.908 241.218 325.764 241.218 325.614C241.218 325.464 241.277 325.32 241.383 325.214C241.489 325.108 241.633 325.049 241.783 325.049H330.508C330.658 325.049 330.801 325.108 330.907 325.214C331.013 325.32 331.073 325.464 331.073 325.614C331.073 325.764 331.013 325.908 330.907 326.014C330.801 326.12 330.658 326.179 330.508 326.179Z" fill="#4E4E4E"/>
<path d="M224.829 303.009H136.104C135.955 303.009 135.811 302.95 135.705 302.844C135.599 302.738 135.539 302.594 135.539 302.444C135.539 302.294 135.599 302.15 135.705 302.044C135.811 301.938 135.955 301.879 136.104 301.879H224.829C224.979 301.879 225.123 301.938 225.229 302.044C225.335 302.15 225.394 302.294 225.394 302.444C225.394 302.594 225.335 302.738 225.229 302.844C225.123 302.95 224.979 303.009 224.829 303.009Z" fill="#4E4E4E"/>
<path d="M177.939 272.938C182.533 272.938 186.257 269.214 186.257 264.62C186.257 260.026 182.533 256.302 177.939 256.302C173.345 256.302 169.621 260.026 169.621 264.62C169.621 269.214 173.345 272.938 177.939 272.938Z" fill="white"/>
<path d="M177.939 267.393C179.471 267.393 180.712 266.152 180.712 264.62C180.712 263.089 179.471 261.848 177.939 261.848C176.408 261.848 175.167 263.089 175.167 264.62C175.167 266.152 176.408 267.393 177.939 267.393Z" fill="#3F3D56"/>
<path d="M184.543 280.004C184.799 281.416 184.485 282.871 183.669 284.051C182.852 285.231 181.601 286.038 180.189 286.295C178.778 286.552 177.322 286.238 176.142 285.421C174.962 284.605 174.155 283.353 173.898 281.942L173.896 281.931C173.364 278.992 175.637 277.951 178.577 277.419C181.517 276.887 184.01 277.064 184.543 280.004Z" fill="white"/>
</g>
<defs>
<clipPath id="clip0_2753_86717">
<rect width="362.052" height="326.179" fill="white"/>
</clipPath>
</defs>
</svg>
